<svg width="15" height="15" viewBox="0 0 15 15" fill="none" xmlns="http://www.w3.org/2000/svg">
<path d="M14.186 6.45348H8.54649V0.813954C8.54649 0.557051 8.19764 0 7.49997 0C6.8023 0 6.45345 0.557082 6.45345 0.813954V6.45351H0.813951C0.557079 6.45348 0 6.80233 0 7.49997C0 8.19761 0.557079 8.54649 0.813951 8.54649H6.45348V14.186C6.45348 14.4429 6.8023 15 7.5 15C8.1977 15 8.54652 14.4429 8.54652 14.186V8.54649H14.186C14.4429 8.54649 15 8.19767 15 7.49997C15 6.80227 14.4428 6.45348 14.186 6.45348Z" fill="white"/>
</svg>
